<svg width="297" height="302" viewBox="0 0 297 302" fill="none" xmlns="http://www.w3.org/2000/svg">
<path d="M6.57988 11.0002H283.81V301.2H0.879883V16.6902C0.879883 15.1785 1.48042 13.7287 2.54937 12.6597C3.61833 11.5908 5.06815 10.9902 6.57988 10.9902V11.0002Z" fill="#263238" stroke="#263238" stroke-miterlimit="10"/>
<path d="M15.1602 1H290.72C292.179 1 293.578 1.57946 294.609 2.61091C295.641 3.64236 296.22 5.04131 296.22 6.5V292.62H9.66016V6.5C9.66016 5.04131 10.2396 3.64236 11.2711 2.61091C12.3025 1.57946 13.7015 1 15.1602 1Z" fill="white" stroke="#263238" stroke-miterlimit="10"/>
<path d="M15.1602 1H78.3502C79.8088 1 81.2078 1.57946 82.2392 2.61091C83.2707 3.64236 83.8502 5.04131 83.8502 6.5V292.62H9.66016V6.5C9.66016 5.04131 10.2396 3.64236 11.2711 2.61091C12.3025 1.57946 13.7015 1 15.1602 1Z" fill="#ABABAB"/>
<path d="M15.1602 1H290.72C292.179 1 293.578 1.57946 294.609 2.61091C295.641 3.64236 296.22 5.04131 296.22 6.5V32.65H9.66016V6.5C9.66016 5.04131 10.2396 3.64236 11.2711 2.61091C12.3025 1.57946 13.7015 1 15.1602 1Z" fill="#92E3A9" stroke="#263238" stroke-miterlimit="10"/>
<path d="M15.1602 1H290.72C292.179 1 293.578 1.57946 294.609 2.61091C295.641 3.64236 296.22 5.04131 296.22 6.5V21.42H9.66016V6.5C9.66016 5.04131 10.2396 3.64236 11.2711 2.61091C12.3025 1.57946 13.7015 1 15.1602 1Z" fill="#263238" stroke="#263238" stroke-miterlimit="10"/>
<path d="M257.7 11.8297C257.7 10.9674 257.444 10.1244 256.965 9.40744C256.486 8.69044 255.805 8.13161 255.008 7.80161C254.212 7.47162 253.335 7.38527 252.489 7.5535C251.644 7.72174 250.867 8.13699 250.257 8.74674C249.647 9.3565 249.232 10.1334 249.064 10.9791C248.896 11.8249 248.982 12.7015 249.312 13.4982C249.642 14.2949 250.201 14.9759 250.918 15.4549C251.635 15.934 252.478 16.1897 253.34 16.1897C254.496 16.1871 255.603 15.7269 256.42 14.9098C257.237 14.0927 257.697 12.9853 257.7 11.8297Z" fill="white" stroke="#263238" stroke-miterlimit="10"/>
<path d="M274.42 11.8297C274.42 10.9674 274.164 10.1244 273.685 9.40744C273.206 8.69044 272.525 8.13161 271.728 7.80161C270.932 7.47162 270.055 7.38527 269.209 7.5535C268.363 7.72174 267.586 8.13699 266.977 8.74674C266.367 9.3565 265.952 10.1334 265.783 10.9791C265.615 11.8249 265.702 12.7015 266.032 13.4982C266.362 14.2949 266.92 14.9759 267.637 15.4549C268.354 15.934 269.197 16.1897 270.06 16.1897C271.215 16.1871 272.323 15.7269 273.14 14.9098C273.957 14.0927 274.417 12.9853 274.42 11.8297Z" fill="white" stroke="#263238" stroke-miterlimit="10"/>
<path d="M291.15 11.8302C291.152 10.9655 290.897 10.1196 290.418 9.39964C289.939 8.67968 289.257 8.11801 288.459 7.78572C287.661 7.45343 286.782 7.36546 285.933 7.53295C285.085 7.70044 284.305 8.11585 283.693 8.7266C283.081 9.33736 282.664 10.116 282.494 10.964C282.325 11.8119 282.411 12.6911 282.741 13.4902C283.072 14.2893 283.632 14.9724 284.351 15.453C285.07 15.9336 285.915 16.1902 286.78 16.1902C287.937 16.1902 289.047 15.7312 289.866 14.9138C290.685 14.0964 291.147 12.9875 291.15 11.8302Z" fill="white" stroke="#263238" stroke-miterlimit="10"/>
<path d="M105.63 31.9702V25.1602" stroke="#263238" stroke-miterlimit="10"/>
<path d="M147.83 31.9702V25.1602" stroke="#263238" stroke-miterlimit="10"/>
<path d="M190.04 31.9702V25.1602" stroke="#263238" stroke-miterlimit="10"/>
<path d="M232.24 31.9702V25.1602" stroke="#263238" stroke-miterlimit="10"/>
<path d="M274.44 31.9702V25.1602" stroke="#263238" stroke-miterlimit="10"/>
<path d="M279.89 59H98.8301V238.7H279.89V59Z" fill="white" stroke="#263238" stroke-miterlimit="10"/>
<path d="M200.21 104.24H224.59" stroke="#263238" stroke-miterlimit="10"/>
<path d="M200.21 122.16H224.59" stroke="#263238" stroke-miterlimit="10"/>
<path d="M200.21 140.07H224.59" stroke="#263238" stroke-miterlimit="10"/>
<path d="M153.43 179.51H165.32" stroke="#263238" stroke-miterlimit="10"/>
<path d="M125.66 179.51H150.72" stroke="#263238" stroke-miterlimit="10"/>
<path d="M113.8 179.51H122.27" stroke="#263238" stroke-miterlimit="10"/>
<path d="M134.13 185.02H165.32" stroke="#263238" stroke-miterlimit="10"/>
<path d="M113.8 185.02H131.42" stroke="#263238" stroke-miterlimit="10"/>
<path d="M152.42 190.52H165.32" stroke="#263238" stroke-miterlimit="10"/>
<path d="M128.37 190.52H149.03" stroke="#263238" stroke-miterlimit="10"/>
<path d="M113.8 190.52H125.32" stroke="#263238" stroke-miterlimit="10"/>
<path d="M113.8 196.02H165.32" stroke="#263238" stroke-miterlimit="10"/>
<path d="M135.14 201.52H165.32" stroke="#263238" stroke-miterlimit="10"/>
<path d="M113.8 201.52H131.42" stroke="#263238" stroke-miterlimit="10"/>
<path d="M156.48 207.03H165.32" stroke="#263238" stroke-miterlimit="10"/>
<path d="M113.8 207.03H153.77" stroke="#263238" stroke-miterlimit="10"/>
<path d="M157.84 212.53H165.32" stroke="#263238" stroke-miterlimit="10"/>
<path d="M127.35 212.53H155.81" stroke="#263238" stroke-miterlimit="10"/>
<path d="M113.8 212.53H125.32" stroke="#263238" stroke-miterlimit="10"/>
<path d="M159.19 218.03H165.32" stroke="#263238" stroke-miterlimit="10"/>
<path d="M138.87 218.03H155.47" stroke="#263238" stroke-miterlimit="10"/>
<path d="M113.8 218.03H136.5" stroke="#263238" stroke-miterlimit="10"/>
<path d="M260.89 99.2998H269.84" stroke="#263238" stroke-miterlimit="10"/>
<path d="M239.97 99.2998H258.85" stroke="#263238" stroke-miterlimit="10"/>
<path d="M231.04 99.2998H237.42" stroke="#263238" stroke-miterlimit="10"/>
<path d="M246.35 105.78H269.84" stroke="#263238" stroke-miterlimit="10"/>
<path d="M231.04 105.78H244.31" stroke="#263238" stroke-miterlimit="10"/>
<path d="M260.12 112.26H269.84" stroke="#263238" stroke-miterlimit="10"/>
<path d="M242.01 112.26H257.57" stroke="#263238" stroke-miterlimit="10"/>
<path d="M231.04 112.26H239.71" stroke="#263238" stroke-miterlimit="10"/>
<path d="M231.04 118.74H269.84" stroke="#263238" stroke-miterlimit="10"/>
<path d="M247.11 125.21H269.84" stroke="#263238" stroke-miterlimit="10"/>
<path d="M231.04 125.21H244.31" stroke="#263238" stroke-miterlimit="10"/>
<path d="M263.18 131.69H269.84" stroke="#263238" stroke-miterlimit="10"/>
<path d="M231.04 131.69H261.14" stroke="#263238" stroke-miterlimit="10"/>
<path d="M264.2 138.17H269.84" stroke="#263238" stroke-miterlimit="10"/>
<path d="M241.24 138.17H262.67" stroke="#263238" stroke-miterlimit="10"/>
<path d="M231.04 138.17H239.71" stroke="#263238" stroke-miterlimit="10"/>
<path d="M265.23 144.65H269.84" stroke="#263238" stroke-miterlimit="10"/>
<path d="M249.92 144.65H262.42" stroke="#263238" stroke-miterlimit="10"/>
<path d="M231.04 144.65H248.13" stroke="#263238" stroke-miterlimit="10"/>
<path d="M140 151.38C135.219 151.379 130.517 150.168 126.33 147.86L130.05 141.13C134.015 143.321 138.594 144.14 143.073 143.461C147.552 142.781 151.681 140.64 154.817 137.371C157.954 134.102 159.923 129.888 160.417 125.385C160.911 120.882 159.903 116.341 157.55 112.47L164.11 108.47C166.716 112.75 168.135 117.646 168.223 122.656C168.31 127.666 167.063 132.61 164.608 136.978C162.154 141.347 158.581 144.983 154.256 147.514C149.931 150.045 145.011 151.379 140 151.38Z" fill="#92E3A9" stroke="#263238" stroke-miterlimit="10"/>
<path d="M126.32 147.86C121.267 145.067 117.191 140.791 114.643 135.61C112.095 130.429 111.196 124.591 112.068 118.883C112.94 113.175 115.54 107.872 119.519 103.687C123.497 99.5029 128.663 96.6386 134.32 95.4805L135.84 103.02C131.724 103.862 127.965 105.945 125.069 108.988C122.174 112.031 120.28 115.889 119.644 120.041C119.008 124.193 119.659 128.441 121.511 132.212C123.362 135.982 126.325 139.095 130 141.13L126.32 147.86Z" fill="#263238" stroke="#263238" stroke-miterlimit="10"/>
<path d="M157.54 112.47C155.716 109.453 153.142 106.959 150.068 105.231C146.995 103.503 143.526 102.6 140 102.61C138.62 102.61 137.243 102.748 135.89 103.02L134.37 95.4801C136.224 95.1077 138.11 94.9202 140 94.9201C144.847 94.9031 149.616 96.1424 153.841 98.5171C158.067 100.892 161.605 104.321 164.11 108.47L157.54 112.47Z" fill="#ABABAB" stroke="#263238" stroke-miterlimit="10"/>
<path d="M195.23 99.7598H186.77V108.22H195.23V99.7598Z" fill="#92E3A9" stroke="#263238" stroke-miterlimit="10"/>
<path d="M195.23 117.93H186.77V126.39H195.23V117.93Z" fill="#263238" stroke="#263238" stroke-miterlimit="10"/>
<path d="M195.23 136.09H186.77V144.55H195.23V136.09Z" fill="#ABABAB" stroke="#263238" stroke-miterlimit="10"/>
<path d="M196.84 186.02H184.33V219.53H196.84V186.02Z" fill="#263238"/>
<path d="M213.35 171.01H200.84V219.53H213.35V171.01Z" fill="#92E3A9" stroke="#263238" stroke-miterlimit="10"/>
<path d="M229.86 193.52H217.35V219.53H229.86V193.52Z" fill="#263238"/>
<path d="M246.36 178.01H233.85V219.53H246.36V178.01Z" fill="#92E3A9" stroke="#263238" stroke-miterlimit="10"/>
<path d="M262.87 164.51H250.36V219.53H262.87V164.51Z" fill="#263238"/>
<path d="M227.47 71.9404H163.49V78.0704H227.47V71.9404Z" fill="#263238"/>
<path d="M75.6901 51.3496H17.8301V113.29H75.6901V51.3496Z" fill="white" stroke="#263238" stroke-miterlimit="10"/>
<path d="M46.7497 92.8397C44.0356 92.8399 41.3657 92.1518 38.9897 90.8397L41.1097 86.9997C43.3599 88.2362 45.955 88.6961 48.493 88.3082C51.031 87.9202 53.3702 86.7062 55.1483 84.8541C56.9264 83.002 58.044 80.6152 58.3281 78.0635C58.6122 75.5118 58.0469 72.9376 56.7197 70.7397L60.4497 68.4697C61.941 70.8991 62.7561 73.6828 62.8108 76.5328C62.8655 79.3828 62.1578 82.1957 60.7609 84.6805C59.364 87.1653 57.3287 89.2318 54.8654 90.6663C52.4021 92.1008 49.6003 92.8511 46.7497 92.8397Z" fill="#92E3A9"/>
<path d="M38.9999 90.8298C36.1139 89.2539 33.7835 86.8271 32.3259 83.8796C30.8683 80.9321 30.3542 77.607 30.8536 74.3569C31.353 71.1068 32.8417 68.0895 35.117 65.7156C37.3924 63.3418 40.3439 61.7265 43.5699 61.0898L44.4299 65.3699C42.096 65.8499 39.965 67.0329 38.3232 68.7598C36.6815 70.4868 35.6077 72.6749 35.2462 75.03C34.8847 77.3852 35.2528 79.7946 36.3011 81.9344C37.3493 84.0742 39.0274 85.8419 41.1099 86.9998L38.9999 90.8298Z" fill="#263238"/>
<path d="M56.7198 70.7396C55.6821 69.0188 54.2145 67.5976 52.4612 66.6157C50.7079 65.6339 48.7292 65.1252 46.7198 65.1396C45.9375 65.1409 45.1572 65.2179 44.3898 65.3696L43.5298 61.0896C44.5799 60.8777 45.6485 60.7706 46.7198 60.7696C49.474 60.7601 52.1837 61.4645 54.5847 62.8139C56.9857 64.1634 58.996 66.1119 60.4198 68.4696L56.7198 70.7396Z" fill="#ABABAB"/>
<path d="M57.1997 98.4102H66.1497" stroke="#263238" stroke-miterlimit="10"/>
<path d="M36.2798 98.4102H55.1598" stroke="#263238" stroke-miterlimit="10"/>
<path d="M27.3496 98.4102H33.7296" stroke="#263238" stroke-miterlimit="10"/>
<path d="M42.6597 101.46H66.1497" stroke="#263238" stroke-miterlimit="10"/>
<path d="M27.3496 101.46H40.6196" stroke="#263238" stroke-miterlimit="10"/>
<path d="M56.4399 104.52H66.1499" stroke="#263238" stroke-miterlimit="10"/>
<path d="M38.3198 104.52H53.8898" stroke="#263238" stroke-miterlimit="10"/>
<path d="M27.3496 104.52H36.0296" stroke="#263238" stroke-miterlimit="10"/>
<path d="M75.6901 135.24H17.8301V197.18H75.6901V135.24Z" fill="white" stroke="#263238" stroke-miterlimit="10"/>
<path d="M58.3198 142.06H69.1298" stroke="#263238" stroke-miterlimit="10"/>
<path d="M33.0498 142.06H44.5498" stroke="#263238" stroke-miterlimit="10"/>
<path d="M22.2695 142.06H29.9695" stroke="#263238" stroke-miterlimit="10"/>
<path d="M40.7598 148.54H44.3698" stroke="#263238" stroke-miterlimit="10"/>
<path d="M22.2695 148.54H38.2895" stroke="#263238" stroke-miterlimit="10"/>
<path d="M35.5195 155.02H44.3695" stroke="#263238" stroke-miterlimit="10"/>
<path d="M22.2695 155.02H32.7395" stroke="#263238" stroke-miterlimit="10"/>
<path d="M22.2695 161.5H44.3695" stroke="#263238" stroke-miterlimit="10"/>
<path d="M41.6797 167.98H69.1297" stroke="#263238" stroke-miterlimit="10"/>
<path d="M22.2695 167.98H38.2895" stroke="#263238" stroke-miterlimit="10"/>
<path d="M61.0898 174.46H69.1298" stroke="#263238" stroke-miterlimit="10"/>
<path d="M22.2695 174.46H58.6295" stroke="#263238" stroke-miterlimit="10"/>
<path d="M62.3301 180.93H69.1301" stroke="#263238" stroke-miterlimit="10"/>
<path d="M34.5898 180.93H60.4799" stroke="#263238" stroke-miterlimit="10"/>
<path d="M22.2695 180.93H32.7395" stroke="#263238" stroke-miterlimit="10"/>
<path d="M63.5601 187.41H69.1301" stroke="#263238" stroke-miterlimit="10"/>
<path d="M45.0698 187.41H60.1698" stroke="#263238" stroke-miterlimit="10"/>
<path d="M22.2695 187.41H42.9095" stroke="#263238" stroke-miterlimit="10"/>
<path d="M69.14 142.11H46.46V164.79H69.14V142.11Z" stroke="#263238" stroke-miterlimit="10"/>
<path d="M46.46 164.78L55.14 155.13L59.48 158.03L65.76 150.79L68.65 152.24" stroke="#263238" stroke-miterlimit="10"/>
<path d="M53.2101 151.76C55.0768 151.76 56.5901 150.247 56.5901 148.38C56.5901 146.513 55.0768 145 53.2101 145C51.3434 145 49.8301 146.513 49.8301 148.38C49.8301 150.247 51.3434 151.76 53.2101 151.76Z" stroke="#263238" stroke-miterlimit="10"/>
<path d="M75.6901 215.05H17.8301V276.99H75.6901V215.05Z" fill="white" stroke="#263238" stroke-miterlimit="10"/>
<path d="M43.1099 250.51H65.8399" stroke="#263238" stroke-miterlimit="10"/>
<path d="M27.04 250.51H40.3" stroke="#263238" stroke-miterlimit="10"/>
<path d="M59.1797 256.99H65.8397" stroke="#263238" stroke-miterlimit="10"/>
<path d="M27.04 256.99H57.14" stroke="#263238" stroke-miterlimit="10"/>
<path d="M60.1997 263.47H65.8397" stroke="#263238" stroke-miterlimit="10"/>
<path d="M37.2397 263.47H58.6697" stroke="#263238" stroke-miterlimit="10"/>
<path d="M27.04 263.47H35.71" stroke="#263238" stroke-miterlimit="10"/>
<path d="M61.2197 269.95H65.8397" stroke="#263238" stroke-miterlimit="10"/>
<path d="M45.9199 269.95H58.4199" stroke="#263238" stroke-miterlimit="10"/>
<path d="M27.04 269.95H44.13" stroke="#263238" stroke-miterlimit="10"/>
<path d="M33.4601 231.66H27.3301V246.5H33.4601V231.66Z" fill="#263238"/>
<path d="M41.5499 225.02H35.4199V246.5H41.5499V225.02Z" fill="#92E3A9" stroke="#263238" stroke-miterlimit="10"/>
<path d="M49.6398 234.99H43.5098V246.51H49.6398V234.99Z" fill="#263238"/>
<path d="M57.7198 228.12H51.5898V246.5H57.7198V228.12Z" fill="#92E3A9" stroke="#263238" stroke-miterlimit="10"/>
<path d="M65.8097 222.14H59.6797V246.5H65.8097V222.14Z" fill="#263238"/>
</svg>
